<!DOCTYPE svg PUBLIC "-//W3C//DTD SVG 1.1//EN" "http://www.w3.org/Graphics/SVG/1.1/DTD/svg11.dtd">
<!-- Uploaded to: SVG Repo, www.svgrepo.com, Transformed by: SVG Repo Mixer Tools -->
<svg height="800px" width="800px" version="1.1" id="Capa_1" xmlns="http://www.w3.org/2000/svg" xmlns:xlink="http://www.w3.org/1999/xlink" viewBox="0 0 311.495 311.495" xml:space="preserve" fill="#000000" transform="matrix(1, 0, 0, -1, 0, 0)">
<g id="SVGRepo_bgCarrier" stroke-width="0"/>
<g id="SVGRepo_tracerCarrier" stroke-linecap="round" stroke-linejoin="round"/>
<g id="SVGRepo_iconCarrier"> <g> <path style="fill:#231F20;" d="M303.748,0H187.251c-4.142,0-7.5,3.358-7.5,7.5v20c0,4.142,3.358,7.5,7.5,7.5h64.246l-82.301,82.302 c-1.407,1.406-2.197,3.314-2.197,5.303v181.39c0,4.142,3.358,7.5,7.5,7.5h20c4.142,0,7.5-3.358,7.5-7.5V133.996l74.248-74.248 v64.246c0,4.142,3.358,7.5,7.5,7.5h20c4.142,0,7.5-3.358,7.5-7.5V7.5C311.248,3.358,307.889,0,303.748,0z"/> <path style="fill:#231F20;" d="M59.998,35h64.246c4.142,0,7.5-3.358,7.5-7.5v-20c0-4.142-3.358-7.5-7.5-7.5H7.748 c-4.142,0-7.5,3.358-7.5,7.5v116.494c0,4.142,3.358,7.5,7.5,7.5h20c4.142,0,7.5-3.358,7.5-7.5V59.748l74.248,74.248v169.999 c0,4.142,3.358,7.5,7.5,7.5h20c4.142,0,7.5-3.358,7.5-7.5v-181.39c0-1.989-0.79-3.897-2.197-5.303L59.998,35z"/> </g> </g>
</svg>