<?xml version="1.0" encoding="iso-8859-1"?>
<!-- Uploaded to: SVG Repo, www.svgrepo.com, Generator: SVG Repo Mixer Tools -->
<svg fill="#000000" height="800px" width="800px" version="1.1" id="Layer_1" xmlns="http://www.w3.org/2000/svg" xmlns:xlink="http://www.w3.org/1999/xlink" 
	 viewBox="0 0 512 512" xml:space="preserve">
<g>
	<g>
		<path d="M0,49.951v412.098h512V49.951H0z M474.537,424.585H37.463V87.415h158.56l49.951,74.927h228.562V424.585z M474.537,124.878
			H266.025L241.05,87.415h233.487V124.878z"/>
	</g>
</g>
<g>
	<g>
		<path d="M322.595,310.282c1.359-5.385,2.088-11.017,2.088-16.819c0-5.802-0.729-11.434-2.09-16.819l18.476-10.667l-18.732-32.443
			l-18.521,10.693c-8.05-7.82-18-13.68-29.085-16.829v-21.35h-37.462v21.35c-11.085,3.148-21.036,9.009-29.085,16.829
			l-18.521-10.693l-18.732,32.443l18.476,10.667c-1.36,5.385-2.089,11.017-2.089,16.819c0,5.802,0.729,11.434,2.09,16.819
			l-18.476,10.667l18.732,32.443l18.521-10.693c8.05,7.82,18,13.68,29.085,16.829v21.35h37.463v-21.35
			c11.085-3.148,21.036-9.009,29.085-16.829l18.521,10.693l18.732-32.443L322.595,310.282z M256,324.683
			c-17.214,0-31.219-14.005-31.219-31.219c0-17.214,14.005-31.22,31.219-31.22s31.219,14.005,31.219,31.22
			C287.219,310.678,273.214,324.683,256,324.683z"/>
	</g>
</g>
</svg>