<!DOCTYPE svg PUBLIC "-//W3C//DTD SVG 1.1//EN" "http://www.w3.org/Graphics/SVG/1.1/DTD/svg11.dtd">
<!-- Uploaded to: SVG Repo, www.svgrepo.com, Transformed by: SVG Repo Mixer Tools -->
<svg width="800px" height="800px" viewBox="0 0 16 16" xmlns="http://www.w3.org/2000/svg" fill="#000000">
<g id="SVGRepo_bgCarrier" stroke-width="0"/>
<g id="SVGRepo_tracerCarrier" stroke-linecap="round" stroke-linejoin="round"/>
<g id="SVGRepo_iconCarrier">
<path fill-rule="evenodd" clip-rule="evenodd" d="M1 3.5l.5-.5h13l.5.5v9l-.5.5h-13l-.5-.5v-9zM14 4H8v3.493h-.5l-3.574-.005 2.09-2.09-.707-.707-2.955 2.955v.708l2.955 2.955.707-.707-2.114-2.114 3.996.005H8v-.986l3.907.005-2.114-2.114.707-.707 2.956 2.955v.708L10.5 11.309l-.707-.707 2.09-2.09L8 8.507V12h6V4z"/>
</g>
</svg>