<?xml version="1.0" encoding="iso-8859-1"?>
<!-- Uploaded to: SVG Repo, www.svgrepo.com, Generator: SVG Repo Mixer Tools -->
<!DOCTYPE svg PUBLIC "-//W3C//DTD SVG 1.1//EN" "http://www.w3.org/Graphics/SVG/1.1/DTD/svg11.dtd">
<svg fill="#000000" version="1.1" id="Capa_1" xmlns="http://www.w3.org/2000/svg" xmlns:xlink="http://www.w3.org/1999/xlink" 
	 width="800px" height="800px" viewBox="0 0 504.996 504.997"
	 xml:space="preserve">
<g>
	<path d="M445.323,269.969l-30.935,38.354V107.521c0-16.61-13.464-30.093-30.083-30.093c-0.842,0-1.636,0.182-2.468,0.249
		c-2.056-0.401-4.159-0.641-6.35-0.641H276.68c-18.484,0-33.469,14.984-33.469,33.469s14.984,33.469,33.469,33.469h77.532v160.946
		l-28.19-34.96c-14.21-17.624-36.596-23.132-50.021-12.308c-13.416,10.815-12.785,33.87,1.406,51.494l74.31,92.173
		c2.668,3.299,5.633,6.12,8.76,8.539c5.498,7.201,14.076,11.896,23.82,11.896c7.401,0,14.114-2.783,19.345-7.229
		c5.795-3.003,11.332-7.449,15.97-13.206l74.301-92.153c14.2-17.624,14.85-40.688,1.415-51.514
		C481.919,246.827,459.523,252.335,445.323,269.969z"/>
	<path d="M9.666,247.344c13.417,10.825,35.812,5.317,50.012-12.316l30.935-38.355v200.803c0,16.61,13.464,30.093,30.083,30.093
		c0.841,0,1.635-0.182,2.467-0.248c2.056,0.401,4.16,0.641,6.349,0.641h98.81c18.484,0,33.468-14.984,33.468-33.469
		s-14.984-33.469-33.468-33.469h-77.533V200.076l28.19,34.96c14.21,17.624,36.596,23.132,50.021,12.307
		c13.417-10.815,12.786-33.871-1.406-51.494l-74.31-92.173c-2.668-3.299-5.632-6.12-8.759-8.54
		c-5.499-7.2-14.076-11.896-23.82-11.896c-7.401,0-14.114,2.783-19.345,7.229c-5.795,3.002-11.332,7.449-15.969,13.206
		L11.09,195.831C-3.12,213.454-3.76,236.519,9.666,247.344z"/>
</g>
</svg>